HIERARCHY
ROOT Hips
{
	OFFSET 0.000000 83.214638 0.000000
	CHANNELS 6 Xposition Yposition Zposition Xrotation Yrotation Zrotation
	JOINT Pelvis
	{
		OFFSET 0.000000 0.000000 0.000000
		CHANNELS 3 Xrotation Yrotation Zrotation
		JOINT LeftUpLeg
		{
			OFFSET 8.479700 -4.795502 -0.379100
			CHANNELS 3 Xrotation Yrotation Zrotation
			JOINT LeftLeg
			{
				OFFSET 0.024144 -32.555107 0.112900
				CHANNELS 3 Xrotation Yrotation Zrotation
				JOINT LeftFoot
				{
					OFFSET -0.024144 -32.638630 -3.012600
					CHANNELS 3 Xrotation Yrotation Zrotation
					JOINT LeftToeBase
					{
						OFFSET 0.970200 -13.225400 11.864200
						CHANNELS 3 Xrotation Yrotation Zrotation
						End Site
						{
							OFFSET 0.000000 12.319262 0.000000
						}
					}
					JOINT LFootTongue
					{
						OFFSET 1.142400 -1.059800 6.665200
						CHANNELS 3 Xrotation Yrotation Zrotation
						End Site
						{
							OFFSET 0.000000 12.319262 0.000000
						}
					}
				}
				JOINT LeftPantLeg
				{
					OFFSET 0.918482 -16.533964 -2.284700
					CHANNELS 3 Xrotation Yrotation Zrotation
					End Site
					{
						OFFSET 0.350399 24.744368 0.000000
					}
				}
			}
		}
		JOINT RightUpLeg
		{
			OFFSET -8.479700 -4.795502 -0.379100
			CHANNELS 3 Xrotation Yrotation Zrotation
			JOINT RightLeg
			{
				OFFSET -0.023144 -32.555092 0.112900
				CHANNELS 3 Xrotation Yrotation Zrotation
				JOINT RightFoot
				{
					OFFSET 0.023144 -32.638641 -3.012700
					CHANNELS 3 Xrotation Yrotation Zrotation
					JOINT RightToeBase
					{
						OFFSET -0.970200 -13.225400 11.864200
						CHANNELS 3 Xrotation Yrotation Zrotation
						End Site
						{
							OFFSET 0.000000 12.319244 0.000000
						}
					}
					JOINT RFootTongue
					{
						OFFSET -1.142200 -1.059800 6.665200
						CHANNELS 3 Xrotation Yrotation Zrotation
						End Site
						{
							OFFSET 0.000000 12.319243 0.000000
						}
					}
				}
				JOINT RightPantLeg
				{
					OFFSET -0.919482 -16.533978 -2.284800
					CHANNELS 3 Xrotation Yrotation Zrotation
					End Site
					{
						OFFSET -0.350400 24.744419 0.000000
					}
				}
			}
		}
	}
	JOINT Spine
	{
		OFFSET 0.000000 7.722000 1.166200
		CHANNELS 3 Xrotation Yrotation Zrotation
		JOINT Spine1
		{
			OFFSET 0.000000 12.024101 0.248800
			CHANNELS 3 Xrotation Yrotation Zrotation
			JOINT Spine2
			{
				OFFSET 0.000000 11.502998 -0.491200
				CHANNELS 3 Xrotation Yrotation Zrotation
				JOINT Neck
				{
					OFFSET 0.000000 18.430702 -3.123100
					CHANNELS 3 Xrotation Yrotation Zrotation
					JOINT Head
					{
						OFFSET 0.000000 9.051102 1.034000
						CHANNELS 3 Xrotation Yrotation Zrotation
						JOINT HairB
						{
							OFFSET 0.208400 24.786102 24.822300
							CHANNELS 3 Xrotation Yrotation Zrotation
							End Site
							{
								OFFSET 0.000000 32.263779 0.000000
							}
						}
						JOINT HairA
						{
							OFFSET -7.081100 24.428299 23.196600
							CHANNELS 3 Xrotation Yrotation Zrotation
							End Site
							{
								OFFSET 0.000000 32.263779 0.000000
							}
						}
						JOINT Hat
						{
							OFFSET 16.728800 15.048294 -15.439601
							CHANNELS 3 Xrotation Yrotation Zrotation
							End Site
							{
								OFFSET 0.000000 32.263779 0.000000
							}
						}
					}
				}
				JOINT LeftShoulder
				{
					OFFSET 6.197800 13.665199 -4.064700
					CHANNELS 3 Xrotation Yrotation Zrotation
					JOINT LeftArm
					{
						OFFSET 7.778100 -0.187103 -1.709300
						CHANNELS 3 Xrotation Yrotation Zrotation
						JOINT LeftForeArm
						{
							OFFSET 22.049376 0.000000 0.000000
							CHANNELS 3 Xrotation Yrotation Zrotation
							JOINT LeftHand
							{
								OFFSET 23.009392 0.000000 0.000000
								CHANNELS 3 Xrotation Yrotation Zrotation
								JOINT LeftHandThumb1
								{
									OFFSET 3.507191 -2.063065 3.133727
									CHANNELS 3 Xrotation Yrotation Zrotation
									JOINT LeftHandThumb2
									{
										OFFSET 3.101337 -1.790558 1.790558
										CHANNELS 3 Xrotation Yrotation Zrotation
										JOINT LeftHandThumb3
										{
											OFFSET 3.058640 -1.765907 1.765906
											CHANNELS 3 Xrotation Yrotation Zrotation
											End Site
											{
												OFFSET -0.415260 3.926476 -0.049563
											}
										}
									}
								}
								JOINT LeftHandIndex1
								{
									OFFSET 11.334419 -0.901459 3.706815
									CHANNELS 3 Xrotation Yrotation Zrotation
									JOINT LeftHandIndex2
									{
										OFFSET 3.283112 0.000000 0.000000
										CHANNELS 3 Xrotation Yrotation Zrotation
										JOINT LeftHandIndex3
										{
											OFFSET 3.323853 0.000000 0.000000
											CHANNELS 3 Xrotation Yrotation Zrotation
											End Site
											{
												OFFSET -1.135597 3.097809 0.402452
											}
										}
									}
								}
								JOINT LeftHandMiddle1
								{
									OFFSET 11.335861 0.000000 0.000000
									CHANNELS 3 Xrotation Yrotation Zrotation
									JOINT LeftHandMiddle2
									{
										OFFSET 3.410492 0.000000 0.000000
										CHANNELS 3 Xrotation Yrotation Zrotation
										JOINT LeftHandMiddle3
										{
											OFFSET 3.312172 0.000000 0.000000
											CHANNELS 3 Xrotation Yrotation Zrotation
											End Site
											{
												OFFSET -1.150200 3.080154 0.400270
											}
										}
									}
								}
								JOINT LeftHandRing1
								{
									OFFSET 11.514786 -0.013176 -3.003090
									CHANNELS 3 Xrotation Yrotation Zrotation
									JOINT LeftHandRing2
									{
										OFFSET 3.053307 0.000000 0.000000
										CHANNELS 3 Xrotation Yrotation Zrotation
										JOINT LeftHandRing3
										{
											OFFSET 3.295807 0.000000 0.000000
											CHANNELS 3 Xrotation Yrotation Zrotation
											End Site
											{
												OFFSET -1.281006 3.013344 0.375733
											}
										}
									}
								}
								JOINT LeftHandPinky1
								{
									OFFSET 10.518692 -0.960396 -5.730441
									CHANNELS 3 Xrotation Yrotation Zrotation
									JOINT LeftHandPinky2
									{
										OFFSET 2.861649 0.000000 0.000000
										CHANNELS 3 Xrotation Yrotation Zrotation
										JOINT LeftHandPinky3
										{
											OFFSET 2.863380 0.000000 0.000000
											CHANNELS 3 Xrotation Yrotation Zrotation
											End Site
											{
												OFFSET -0.843597 2.711159 0.369971
											}
										}
									}
								}
							}
							JOINT LSleeve
							{
								OFFSET 6.676277 -0.344902 -1.011730
								CHANNELS 3 Xrotation Yrotation Zrotation
								End Site
								{
									OFFSET 0.000000 14.885353 0.000000
								}
							}
						}
					}
				}
				JOINT RightShoulder
				{
					OFFSET -6.197800 13.665199 -4.064700
					CHANNELS 3 Xrotation Yrotation Zrotation
					JOINT RightArm
					{
						OFFSET -7.778100 -0.187103 -1.709300
						CHANNELS 3 Xrotation Yrotation Zrotation
						JOINT RightForeArm
						{
							OFFSET -22.049376 0.000000 0.000000
							CHANNELS 3 Xrotation Yrotation Zrotation
							JOINT RightHand
							{
								OFFSET -23.009392 0.000000 0.000000
								CHANNELS 3 Xrotation Yrotation Zrotation
								JOINT RightHandThumb1
								{
									OFFSET -3.507191 -2.063065 3.133727
									CHANNELS 3 Xrotation Yrotation Zrotation
									JOINT RightHandThumb2
									{
										OFFSET -3.101337 -1.790558 1.790558
										CHANNELS 3 Xrotation Yrotation Zrotation
										JOINT RightHandThumb3
										{
											OFFSET -3.058640 -1.765907 1.765906
											CHANNELS 3 Xrotation Yrotation Zrotation
											End Site
											{
												OFFSET 0.415260 3.926476 -0.049563
											}
										}
									}
								}
								JOINT RightHandIndex1
								{
									OFFSET -11.334419 -0.901459 3.706815
									CHANNELS 3 Xrotation Yrotation Zrotation
									JOINT RightHandIndex2
									{
										OFFSET -3.283112 0.000000 0.000000
										CHANNELS 3 Xrotation Yrotation Zrotation
										JOINT RightHandIndex3
										{
											OFFSET -3.323853 0.000000 0.000000
											CHANNELS 3 Xrotation Yrotation Zrotation
											End Site
											{
												OFFSET 1.135597 3.097809 0.402452
											}
										}
									}
								}
								JOINT RightHandMiddle1
								{
									OFFSET -11.335861 0.000000 0.000000
									CHANNELS 3 Xrotation Yrotation Zrotation
									JOINT RightHandMiddle2
									{
										OFFSET -3.410492 0.000000 0.000000
										CHANNELS 3 Xrotation Yrotation Zrotation
										JOINT RightHandMiddle3
										{
											OFFSET -3.312172 0.000000 0.000000
											CHANNELS 3 Xrotation Yrotation Zrotation
											End Site
											{
												OFFSET 1.150200 3.080154 0.400270
											}
										}
									}
								}
								JOINT RightHandRing1
								{
									OFFSET -11.514786 -0.013176 -3.003090
									CHANNELS 3 Xrotation Yrotation Zrotation
									JOINT RightHandRing2
									{
										OFFSET -3.053307 0.000000 0.000000
										CHANNELS 3 Xrotation Yrotation Zrotation
										JOINT RightHandRing3
										{
											OFFSET -3.295807 0.000000 0.000000
											CHANNELS 3 Xrotation Yrotation Zrotation
											End Site
											{
												OFFSET 1.281006 3.013344 0.375733
											}
										}
									}
								}
								JOINT RightHandPinky1
								{
									OFFSET -10.518692 -0.960396 -5.730441
									CHANNELS 3 Xrotation Yrotation Zrotation
									JOINT RightHandPinky2
									{
										OFFSET -2.861649 0.000000 0.000000
										CHANNELS 3 Xrotation Yrotation Zrotation
										JOINT RightHandPinky3
										{
											OFFSET -2.863380 0.000000 0.000000
											CHANNELS 3 Xrotation Yrotation Zrotation
											End Site
											{
												OFFSET 0.843597 2.711159 0.369971
											}
										}
									}
								}
							}
							JOINT RSleeve
							{
								OFFSET -6.676277 -0.344902 -1.011730
								CHANNELS 3 Xrotation Yrotation Zrotation
								End Site
								{
									OFFSET 0.000000 14.885353 0.000000
								}
							}
						}
					}
				}
				JOINT Backpack
				{
					OFFSET 0.000000 -2.471497 36.677502
					CHANNELS 3 Xrotation Yrotation Zrotation
					End Site
					{
						OFFSET 0.000000 20.427315 0.000000
					}
				}
				JOINT Hood
				{
					OFFSET 0.000000 18.754097 -10.431000
					CHANNELS 3 Xrotation Yrotation Zrotation
					JOINT Hood1
					{
						OFFSET 0.000000 -5.011002 -7.685901
						CHANNELS 3 Xrotation Yrotation Zrotation
						End Site
						{
							OFFSET 0.000000 9.175140 0.000000
						}
					}
				}
				JOINT LHoodieString
				{
					OFFSET 5.250500 16.397697 3.089900
					CHANNELS 3 Xrotation Yrotation Zrotation
					JOINT LHoodieString1
					{
						OFFSET 0.257700 -6.364304 3.694600
						CHANNELS 3 Xrotation Yrotation Zrotation
						JOINT LHoodieString2
						{
							OFFSET 0.000000 -9.643799 2.679100
							CHANNELS 3 Xrotation Yrotation Zrotation
							End Site
							{
								OFFSET 0.000000 10.009018 0.000000
							}
						}
					}
				}
				JOINT RHoodieString
				{
					OFFSET -5.250500 16.397697 3.089900
					CHANNELS 3 Xrotation Yrotation Zrotation
					JOINT RHoodieString1
					{
						OFFSET -0.257700 -6.364304 3.694600
						CHANNELS 3 Xrotation Yrotation Zrotation
						JOINT RHoodieString2
						{
							OFFSET 0.000000 -9.643799 2.679100
							CHANNELS 3 Xrotation Yrotation Zrotation
							End Site
							{
								OFFSET 0.000000 10.009018 0.000000
							}
						}
					}
				}
			}
			JOINT LBackpack_Strap
			{
				OFFSET 15.223200 -7.719803 -6.610900
				CHANNELS 3 Xrotation Yrotation Zrotation
				End Site
				{
					OFFSET 0.000000 16.040596 0.000000
				}
			}
			JOINT RBackpack_Strap
			{
				OFFSET -15.223000 -7.719803 -6.610900
				CHANNELS 3 Xrotation Yrotation Zrotation
				End Site
				{
					OFFSET 0.000000 16.040596 0.000000
				}
			}
		}
	}
	JOINT BoyFacialAnim_Joint
	{
		OFFSET 1.000000 -82.208099 -1.550900
		CHANNELS 3 Xrotation Yrotation Zrotation
		End Site
		{
			OFFSET 0.000000 30.012791 0.000000
		}
	}
}
MOTION
Frames: 4
Frame Time: 0.033333
-1.013518 10.212074 -3.770866 -71.606091 12.927981 10.533521 -0.000001 -0.000000 -0.000000 -63.407781 3.441645 8.694519 65.518603 12.541093 -1.793162 2.351758 -3.781468 6.624801 -0.000001 0.000002 -0.000000 -0.000001 0.000002 -0.000000 -0.000002 -0.000001 -0.000001 -60.529485 2.413870 -14.478297 65.794591 0.051560 2.268536 42.624957 -3.643371 -0.840747 -0.000001 0.000000 -0.000000 -0.000001 0.000000 -0.000000 -0.000002 -0.000000 0.000000 10.466286 -2.463009 -1.463930 21.019644 -3.316720 -0.311195 21.019624 -3.316713 -0.311196 25.778551 0.195222 5.667945 0.500580 -2.654474 4.064567 -0.000000 -0.000000 -0.000000 -0.000000 -0.000000 -0.000000 -0.000000 -0.000000 -0.000000 2.684282 -12.450373 12.240769 64.576672 -11.918064 -83.648746 -0.760220 -55.695866 1.116596 46.785911 4.754982 88.117193 -26.395635 -8.930259 -15.955061 -9.106252 4.525131 1.618530 -0.000001 -0.000001 -0.000001 -4.807578 -14.926714 -15.192528 -1.650224 -0.338235 -21.520849 -0.000001 0.000000 -0.000000 -2.022000 -4.469972 -24.450248 -0.632800 -0.279464 -9.650395 -0.000001 0.000001 0.000000 2.256856 5.624886 -27.362829 0.287484 -1.599002 -13.031805 0.000002 -0.000002 0.000003 14.403286 22.222087 -35.475507 -0.180498 -4.590146 -20.995747 0.000002 -0.000001 0.000001 0.000002 -0.000001 -0.000000 1.454095 2.009787 -12.728533 51.978399 26.515148 74.998872 -3.541704 46.351252 0.459743 55.539174 7.608904 -74.144149 -13.195133 14.598479 3.602216 -25.437310 -11.661807 -12.924017 -0.000000 -0.000000 0.000000 -5.801400 7.410588 9.011735 -0.117206 -0.020768 14.927191 -0.000000 -0.000001 0.000002 -2.588389 0.652508 15.975927 -0.167228 -0.284724 3.366327 0.000000 0.000001 -0.000000 1.364735 -7.856166 12.521600 0.234321 1.737070 11.738018 -0.000000 -0.000000 0.000004 5.491718 -14.873048 9.789661 0.788331 7.067349 23.752514 -0.000000 0.000001 -0.000001 -0.000001 -0.000002 -0.000001 0.000001 -0.000000 0.000000 0.000001 -0.000000 0.000000 0.000001 -0.000000 0.000000 0.000001 -0.000000 0.000000 0.000001 -0.000000 0.000000 0.000002 -0.000000 0.000000 0.000001 -0.000000 0.000000 0.000001 -0.000000 0.000000 0.000002 -0.000000 0.000000 0.000001 0.000000 -0.000000 0.000001 0.000000 -0.000000 -0.000001 -0.000000 -0.000000 
-0.980948 10.163857 -3.844292 -71.914379 12.683923 10.350103 0.000000 0.000000 0.000001 -62.961647 2.215745 8.564363 65.723482 13.111118 -1.833413 1.511637 -3.486100 4.925281 -0.000000 -0.000001 -0.000002 -0.000000 -0.000001 -0.000002 -0.000003 -0.000001 -0.000000 -60.792720 1.530265 -14.617725 66.823716 0.222348 2.287061 40.276188 -3.523161 -2.032188 0.000000 -0.000000 -0.000000 0.000000 -0.000000 -0.000000 -0.000001 -0.000000 -0.000000 10.553976 -2.331340 -1.340664 21.190141 -3.095138 -0.135460 21.190165 -3.095143 -0.135459 25.624044 0.101834 5.801401 0.732873 -2.779574 4.056307 0.000000 -0.000000 -0.000001 0.000000 -0.000000 -0.000001 0.000000 -0.000000 -0.000001 2.727207 -12.489932 12.359509 64.453633 -12.447799 -83.298412 -0.741514 -56.156074 1.219314 46.576986 4.935006 87.757945 -26.290684 -8.819243 -15.957482 -9.089215 4.584325 1.602204 -0.000001 -0.000001 -0.000001 -4.836736 -14.932747 -15.306240 -1.651888 -0.340895 -21.551371 -0.000001 0.000000 -0.000002 -2.012193 -4.551824 -24.466117 -0.633348 -0.282328 -9.679592 0.000001 0.000001 0.000000 2.261538 5.562783 -27.385751 0.287091 -1.600987 -13.061357 -0.000001 -0.000001 -0.000002 14.451975 22.157810 -35.625567 -0.180485 -4.590136 -20.995776 0.000002 0.000002 0.000004 -0.000001 -0.000000 0.000000 3.033869 2.316321 -13.355636 50.552129 27.757815 75.399189 -5.291513 45.972924 1.580252 55.216871 8.799312 -74.203906 -13.236669 14.587831 3.550481 -25.427543 -11.663163 -12.916204 -0.000005 -0.000000 0.000001 -5.807562 7.435127 9.052226 -0.118578 -0.024518 15.014060 -0.000001 -0.000001 0.000003 -2.583718 0.702131 15.968460 -0.167229 -0.284726 3.366327 0.000000 -0.000001 0.000001 1.352922 -7.877969 12.501234 0.233987 1.738856 11.757694 -0.000001 -0.000000 0.000004 5.466387 -14.925070 9.760398 0.788433 7.067072 23.749466 -0.000001 0.000000 0.000002 -0.000002 -0.000001 -0.000001 -0.000002 0.000000 -0.000000 -0.000002 0.000000 -0.000000 -0.000002 0.000000 -0.000000 -0.000002 0.000000 -0.000000 -0.000002 0.000000 0.000000 0.000000 0.000000 0.000000 -0.000002 0.000000 -0.000000 -0.000002 0.000000 0.000000 0.000000 0.000000 0.000000 -0.000003 -0.000001 -0.000000 -0.000003 -0.000001 -0.000000 0.000000 0.000000 0.000001 
-0.936435 10.118050 -3.941040 -72.362016 12.231258 9.956577 0.000000 -0.000001 0.000000 -62.315367 0.777785 8.415053 66.037814 13.847869 -1.871739 0.652729 -2.773365 2.997366 -0.000001 0.000000 -0.000001 -0.000001 0.000000 -0.000001 0.000001 -0.000001 -0.000001 -61.268136 0.865599 -14.323807 68.424821 0.100109 2.301667 37.371250 -3.325306 -3.206927 0.000001 0.000000 0.000000 0.000001 0.000000 0.000000 -0.000000 -0.000000 -0.000000 10.704999 -2.163629 -1.220015 21.483440 -2.863466 -0.030434 21.483429 -2.863465 -0.030434 25.208734 -0.006174 5.905030 1.109514 -2.835893 3.836313 0.000000 -0.000000 -0.000001 0.000000 -0.000000 -0.000001 0.000000 -0.000000 -0.000001 2.638835 -12.346285 12.220366 64.878915 -13.306699 -82.666244 -0.649622 -57.176169 1.504893 45.812804 5.618955 87.585524 -26.293976 -8.858861 -15.988102 -9.063174 4.663074 1.543393 0.000001 0.000000 -0.000001 -4.836785 -14.943691 -15.309181 -1.652693 -0.342184 -21.566239 -0.000001 -0.000000 -0.000004 -1.987306 -4.646234 -24.404966 -0.633712 -0.284214 -9.698931 0.000001 -0.000002 -0.000004 2.268039 5.532672 -27.331345 0.286679 -1.603074 -13.092996 -0.000000 -0.000001 -0.000004 14.490728 22.117307 -35.778355 -0.180484 -4.590130 -20.995757 0.000001 -0.000002 0.000005 -0.000001 0.000001 0.000001 4.709176 2.766039 -13.650328 48.939337 28.350421 75.646333 -7.314363 45.653121 2.888163 54.918437 9.994228 -73.822788 -13.234104 14.537648 3.527635 -25.393477 -11.663006 -12.894607 -0.000002 -0.000001 0.000001 -5.818134 7.458982 9.126220 -0.119422 -0.025903 15.059495 -0.000001 -0.000002 0.000003 -2.578100 0.733299 15.909175 -0.167208 -0.285015 3.363396 0.000000 0.000001 -0.000000 1.349345 -7.904240 12.419157 0.233379 1.742103 11.793598 -0.000000 -0.000000 0.000002 5.424002 -14.970096 9.684453 0.788958 7.065660 23.734894 -0.000000 0.000000 -0.000003 0.000003 0.000001 -0.000000 -0.000002 0.000000 0.000000 -0.000002 0.000000 0.000000 -0.000002 0.000000 0.000000 -0.000002 0.000000 0.000000 -0.000002 0.000000 0.000000 -0.000001 -0.000000 0.000000 -0.000002 0.000000 0.000000 -0.000002 0.000000 0.000000 -0.000001 -0.000000 0.000000 -0.000002 -0.000000 -0.000000 -0.000002 -0.000000 -0.000000 0.000000 -0.000001 0.000000 
-0.878800 10.078377 -4.030891 -72.929352 11.776821 9.375600 -0.000000 -0.000001 -0.000001 -61.622417 -0.863281 8.416560 66.342590 14.468851 -1.926450 0.216281 -1.497228 1.417573 -0.000001 0.000001 -0.000000 -0.000001 0.000001 -0.000000 0.000001 -0.000002 0.000001 -62.024388 0.946175 -13.573986 71.223587 -0.185000 2.326350 33.632132 -2.704409 -3.322160 -0.000001 0.000000 -0.000000 -0.000001 0.000000 -0.000000 -0.000001 0.000000 0.000000 10.936611 -2.041346 -1.074763 21.941028 -2.710153 0.131318 21.941032 -2.710158 0.131317 24.276828 0.025380 6.000469 1.150410 -2.472913 2.819179 0.000001 -0.000000 0.000000 0.000001 -0.000000 0.000000 0.000001 -0.000000 0.000000 2.256457 -11.452194 11.694682 65.619116 -14.642495 -81.223578 -0.201424 -58.541954 2.100018 44.373058 6.775966 87.589260 -26.224400 -8.824171 -16.033680 -9.033369 4.759984 1.449335 -0.000001 -0.000000 0.000001 -4.837752 -14.935547 -15.310863 -1.652707 -0.342163 -21.566404 -0.000001 -0.000001 -0.000000 -1.944633 -4.745855 -24.267403 -0.633857 -0.284943 -9.706465 0.000002 0.000003 -0.000003 2.276279 5.524050 -27.218290 0.286226 -1.605299 -13.126462 -0.000000 0.000000 -0.000000 14.514152 22.088142 -35.901486 -0.180416 -4.590385 -21.005256 0.000001 0.000000 0.000001 0.000000 0.000001 0.000000 6.290305 3.307225 -12.914648 47.899263 26.590598 74.960390 -9.229431 46.417313 4.906853 55.036561 10.591226 -73.089834 -13.251281 14.647937 3.615332 -25.337439 -11.662794 -12.858999 0.000002 0.000000 0.000000 -5.808708 7.466833 9.160981 -0.119201 -0.026293 15.054362 -0.000000 0.000001 0.000002 -2.578998 0.733394 15.927675 -0.167005 -0.286962 3.340579 0.000000 0.000001 -0.000000 1.350542 -7.884061 12.414034 0.233127 1.743442 11.808288 -0.000000 -0.000000 0.000004 5.390359 -14.995745 9.707201 0.789824 7.063317 23.710824 -0.000000 -0.000001 0.000002 -0.000001 -0.000000 0.000000 -0.000001 -0.000001 -0.000000 -0.000001 -0.000001 -0.000000 -0.000001 -0.000001 -0.000000 -0.000001 -0.000001 -0.000000 -0.000001 -0.000001 0.000000 -0.000001 -0.000000 0.000000 -0.000001 -0.000001 -0.000000 -0.000001 -0.000001 0.000000 -0.000001 -0.000000 0.000000 -0.000002 0.000000 0.000000 -0.000002 0.000000 0.000000 -0.000000 -0.000001 -0.000001 
